<svg width="38" height="38" viewBox="0 0 38 38" fill="none" xmlns="http://www.w3.org/2000/svg">
<path fill-rule="evenodd" clip-rule="evenodd" d="M22.6084 3.40732C22.0226 3.16666 21.2784 3.16666 19.7917 3.16666C18.3049 3.16666 17.5607 3.16666 16.9749 3.40732C16.195 3.72749 15.5743 4.34428 15.2491 5.12207C15.1002 5.47516 15.0432 5.88841 15.0195 6.48849C15.0089 6.92328 14.8877 7.34819 14.6671 7.72305C14.4466 8.0979 14.1341 8.41031 13.7592 8.63074C13.3772 8.84307 12.9478 8.95555 12.5107 8.95777C12.0737 8.95998 11.6432 8.85185 11.2591 8.64341C10.7239 8.36157 10.336 8.20641 9.95283 8.15574C9.11454 8.04567 8.26669 8.27101 7.59366 8.78274C7.09016 9.16591 6.71808 9.80557 5.9755 11.0833C5.23133 12.3611 4.86083 12.9992 4.77691 13.6246C4.66608 14.4574 4.89408 15.2997 5.41025 15.9663C5.64458 16.2703 5.9755 16.5252 6.48691 16.8451C7.24216 17.3153 7.72666 18.1165 7.72666 19C7.72666 19.8835 7.24216 20.6847 6.4885 21.1533C5.9755 21.4747 5.64458 21.7297 5.40866 22.0337C5.15388 22.3629 4.96686 22.7394 4.85843 23.1413C4.75 23.5432 4.72229 23.9627 4.77691 24.3754C4.86083 24.9992 5.23133 25.6389 5.9755 26.9167C6.71966 28.1944 7.09016 28.8325 7.59366 29.2172C8.265 29.7287 9.11366 29.9535 9.95283 29.8442C10.336 29.7936 10.7239 29.6384 11.2591 29.3566C11.6434 29.1478 12.0742 29.0396 12.5115 29.0418C12.9489 29.044 13.3786 29.1566 13.7607 29.3692C14.5302 29.8126 14.9862 30.628 15.0195 31.5115C15.0432 32.1132 15.1002 32.5248 15.2491 32.8779C15.5721 33.6537 16.1927 34.2712 16.9749 34.5927C17.5607 34.8333 18.3049 34.8333 19.7917 34.8333C21.2784 34.8333 22.0226 34.8333 22.6084 34.5927C23.3883 34.2725 24.0091 33.6557 24.3342 32.8779C24.4831 32.5248 24.5401 32.1132 24.5638 31.5115C24.5955 30.628 25.0531 29.811 25.8242 29.3692C26.2062 29.1569 26.6356 29.0444 27.0726 29.0422C27.5096 29.04 27.9401 29.1481 28.3242 29.3566C28.8594 29.6384 29.2473 29.7936 29.6305 29.8442C30.4697 29.9551 31.3183 29.7287 31.9897 29.2172C32.4932 28.8341 32.8652 28.1944 33.6078 26.9167C34.352 25.6389 34.7225 25.0008 34.8064 24.3754C34.8608 23.9626 34.8329 23.5431 34.7241 23.1411C34.6154 22.7392 34.4281 22.3628 34.1731 22.0337C33.9387 21.7297 33.6078 21.4747 33.0964 21.1549C32.3412 20.6847 31.8567 19.8835 31.8567 19C31.8567 18.1165 32.3412 17.3153 33.0948 16.8467C33.6078 16.5252 33.9387 16.2703 34.1747 15.9663C34.4294 15.6371 34.6165 15.2606 34.7249 14.8587C34.8333 14.4567 34.861 14.0373 34.8064 13.6246C34.7225 13.0007 34.352 12.3611 33.6078 11.0833C32.8637 9.80557 32.4932 9.16749 31.9897 8.78274C31.3166 8.27101 30.4688 8.04567 29.6305 8.15574C29.2473 8.20641 28.8594 8.36157 28.3242 8.64341C27.9399 8.85214 27.5091 8.96042 27.0718 8.9582C26.6345 8.95599 26.2048 8.84335 25.8226 8.63074C25.448 8.41012 25.1358 8.09762 24.9155 7.72278C24.6953 7.34794 24.5742 6.92313 24.5638 6.48849C24.5401 5.88682 24.4831 5.47516 24.3342 5.12207C24.1733 4.7369 23.9381 4.38722 23.6419 4.093C23.3458 3.79878 22.9946 3.56578 22.6084 3.40732ZM19.7917 23.75C22.4358 23.75 24.5781 21.6236 24.5781 19C24.5781 16.3764 22.4342 14.25 19.7917 14.25C17.1475 14.25 15.0052 16.3764 15.0052 19C15.0052 21.6236 17.1491 23.75 19.7917 23.75Z" fill="black" fill-opacity="0.5"/>
</svg>
